<svg xmlns="http://www.w3.org/2000/svg" viewBox="0 0 1687.247 1000" width="1687.247" height="1000"><path fill="#000" fill-rule="nonzero" d="M1147.481 4.47C1142.816 6.997 1136.208 12.633 1132.709 17.103C1122.02 31.097 1121.825 35.762 1129.405 111.755C1133.098 149.071 1137.374 198.632 1138.734 221.566C1140.289 244.5 1142.233 264.908 1142.816 266.851C1145.343 273.265 1152.534 272.682 1176.245 263.742C1213.756 249.554 1238.828 243.529 1281.392 239.058C1303.743 236.532 1308.991 234.394 1308.991 227.591C1308.991 225.648 1312.489 184.833 1316.959 136.827C1321.235 88.821 1324.539 44.508 1324.151 38.288C1322.984 23.323 1315.599 12.633 1301.411 5.248L1290.721 0L1223.474 0C1156.615 0 1156.032 0 1147.481 4.47ZM1298.884 299.503C1212.007 307.861 1126.684 351.396 1070.71 415.534C1030.867 461.402 1003.657 516.016 990.829 577.044C985.97 599.59 985.582 605.226 985.582 646.235C985.582 687.439 985.97 692.881 990.635 715.426C1015.512 831.263 1088.591 922.804 1193.932 970.422C1287.223 1012.597 1401.504 1009.487 1494.212 962.259C1636.287 889.764 1711.892 733.113 1680.017 576.656C1670.882 530.982 1648.92 480.644 1622.293 443.133C1607.134 421.754 1570.595 384.048 1550.965 369.666C1477.692 315.829 1388.094 290.952 1298.884 299.503ZM1360.106 523.985C1367.881 525.734 1381.486 530.593 1390.62 534.869C1404.031 541.283 1410.25 545.947 1423.855 559.552C1448.733 584.236 1460.006 608.724 1461.949 641.571C1466.031 710.762 1412.777 770.429 1342.809 774.899C1320.263 776.26 1301.022 772.178 1279.254 761.489C1266.621 755.269 1259.819 750.022 1246.797 736.805C1219.975 709.595 1208.897 682.969 1209.092 645.263C1209.286 621.746 1214.145 604.06 1226.584 582.875C1252.822 538.173 1310.157 512.907 1360.106 523.985ZM1318.709 587.54C1306.853 590.844 1297.329 596.869 1288.583 606.586C1276.922 619.608 1273.035 630.104 1273.035 649.151C1273.035 663.339 1273.812 667.031 1278.477 675.777C1284.891 688.022 1297.135 700.266 1308.991 706.097C1321.818 712.316 1348.834 712.316 1361.856 705.903C1373.906 699.878 1385.373 688.605 1391.981 675.972C1396.645 667.031 1397.423 663.339 1397.423 649.151C1397.423 634.963 1396.645 631.075 1391.981 621.552C1385.762 609.113 1373.517 597.257 1360.301 590.844C1349.223 585.79 1330.37 584.236 1318.709 587.54ZM950.209 345.954C929.996 348.87 914.253 356.255 899.87 369.472L891.707 376.857L592.593 377.635C294.061 378.218 293.478 378.218 277.93 382.299C247.027 390.656 224.676 403.678 204.657 425.446C185.999 445.854 174.338 467.233 167.341 494.637C162.093 514.267 166.369 513.101 98.539 513.101C59.279 513.101 36.733 513.878 31.874 515.433C21.962 518.349 9.718 528.844 4.276 539.145C0 546.919 0 548.474 0 618.054C0 687.05 0.194 689.188 4.276 696.768C9.718 706.874 17.492 714.066 28.182 718.925C36.345 722.617 40.815 723.006 97.373 723.006C166.758 723.006 161.705 721.646 167.147 742.442C171.422 757.99 183.084 783.645 191.635 796.278C213.403 827.959 245.861 849.532 283.76 857.306C300.281 860.805 316.218 860.999 595.897 860.999L890.541 860.999L902.008 871.106C918.917 885.877 933.688 892.096 955.651 893.651C965.563 894.428 978.585 894.623 984.415 894.04C998.798 892.679 998.992 889.569 985.387 868.773C945.739 808.134 923.776 736.805 920.861 659.84C916.974 553.527 953.707 452.073 1025.036 372.193C1042.528 352.563 1043.5 351.008 1039.613 347.121C1037.086 344.4 1030.672 344.011 998.409 344.205C977.419 344.4 955.651 345.177 950.209 345.954Z"/></svg>
