<svg xmlns="http://www.w3.org/2000/svg" viewBox="0 0 1541.12 1000" width="1541.12" height="1000"><path fill="#000" fill-rule="nonzero" d="M543.264 2.21C502.541 9.967 460.266 32.267 437.189 57.865C432.341 63.295 402.477 101.303 370.868 142.609C310.171 221.341 192.848 373.181 97.633 495.934C33.251 578.932 32.087 580.677 21.422 601.621C4.744 634.975 -1.461 666.003 0.284 706.144C1.835 739.693 7.847 762.963 22.973 793.603C36.547 820.946 53.806 843.635 75.138 861.863C114.698 895.606 152.512 911.895 203.32 916.937C256.842 922.367 309.201 905.496 347.403 870.202C363.111 855.658 372.031 842.859 372.031 834.52C372.031 831.418 369.123 819.588 365.438 808.341C356.324 780.222 353.803 760.636 355.16 729.803C356.712 694.703 363.111 670.463 379.788 637.496C393.363 610.541 395.496 607.244 520.575 435.818C537.446 412.935 567.892 371.048 588.254 342.736C608.81 314.423 645.461 263.81 669.701 230.261C724.387 154.826 744.942 125.738 747.851 120.308C753.475 109.836 747.657 90.832 732.725 71.052C710.424 41.188 672.028 16.948 630.335 5.894C607.064 -0.117 565.371 -1.863 543.264 2.21ZM523.484 100.916C530.853 105.764 534.15 112.939 532.404 120.114C531.047 125.156 490.13 179.842 341.974 374.733C291.748 440.86 241.328 507.375 230.081 522.307C218.64 537.433 207.974 550.232 206.229 551.007C196.92 554.498 182.958 550.232 177.334 542.087C169.771 531.421 170.159 530.646 237.644 442.023C331.502 318.883 342.555 304.145 421.869 198.652C462.787 144.354 496.723 101.11 499.632 99.364C507.195 95.292 515.921 95.874 523.484 100.916ZM640.419 108.091C645.848 110.03 653.218 120.502 653.218 125.932C653.218 130.973 638.867 151.141 561.687 254.695C522.902 306.86 465.502 384.429 434.086 427.091C353.221 537.433 333.635 563.224 328.981 566.715C326.46 568.266 320.836 569.624 316.182 569.624C304.935 569.624 294.463 560.122 294.463 549.844C294.463 542.475 286.512 553.528 424.196 367.945C478.106 295.225 584.957 150.366 605.513 122.053C609.585 116.623 614.627 110.612 616.954 109.06C621.608 105.764 633.244 105.182 640.419 108.091ZM918.308 20.826C902.6 23.541 881.851 30.522 867.889 37.503C831.237 55.926 811.263 75.124 768.407 134.27C633.244 320.047 522.127 472.469 487.609 519.204C416.052 616.165 397.823 645.835 386.188 683.262C381.34 699.357 380.952 702.848 380.952 736.396C380.952 767.617 381.34 774.405 385.218 788.173C402.671 852.749 444.946 903.944 504.868 933.42C542.876 952.037 578.17 959.018 618.312 955.527C664.659 951.455 706.352 932.451 738.931 900.648C761.038 879.122 763.171 870.59 755.802 836.072C750.178 810.474 749.79 766.26 754.638 741.632C765.692 686.558 774.418 671.045 910.745 466.264C1041.642 269.627 1120.762 149.978 1124.447 143.191C1127.743 136.791 1125.998 123.798 1119.986 111.581C1102.727 76.288 1052.114 39.443 1002.276 25.674C987.344 21.408 978.618 20.438 955.735 19.856C940.221 19.469 923.35 19.856 918.308 20.826ZM896.589 123.604C907.642 134.076 909 131.361 844.036 223.862C735.44 378.611 602.41 564.582 595.429 571.951C589.417 578.156 587.284 579.32 580.109 579.32C568.086 579.32 559.166 571.175 559.36 560.315C559.747 551.589 550.245 565.357 716.242 331.1C766.468 260.125 819.99 184.496 835.31 162.971C850.436 141.445 864.786 122.247 867.113 120.696C873.512 116.042 890.383 117.787 896.589 123.604ZM1006.736 128.259C1023.801 135.434 1024.383 145.13 1008.675 167.819C1002.276 177.127 965.237 230.843 926.259 287.468C887.475 343.899 840.158 412.935 821.153 440.666C760.844 529.094 715.466 593.67 711.976 596.191C707.322 599.682 694.523 599.294 687.929 595.415C681.142 591.343 675.712 580.871 677.652 574.86C679.009 570.787 731.174 494.382 789.932 410.608C806.028 387.725 850.63 323.537 888.832 268.076C927.035 212.614 964.461 158.704 971.83 148.232C987.926 125.35 992.968 122.441 1006.736 128.259ZM1295.679 42.933C1267.367 48.363 1238.86 60.386 1216.559 76.094C1196.391 90.444 1177.387 112.551 1147.911 156.571C1132.397 179.454 1092.643 238.406 1059.483 287.468C1026.128 336.53 985.599 396.258 969.309 420.304C876.615 557.213 810.876 657.664 800.016 679.577C782.369 714.677 776.164 744.347 777.909 786.622C779.654 829.866 791.483 865.548 816.112 902.393C849.466 951.649 910.357 989.464 971.055 998.19C995.683 1001.875 1035.437 999.741 1059.289 993.536C1109.321 980.543 1155.474 948.74 1181.653 908.986C1198.137 884.164 1262.325 779.447 1338.342 653.98C1396.712 557.407 1482.038 417.589 1500.266 388.307C1529.742 341.572 1539.244 313.26 1540.796 268.076C1541.572 248.49 1540.99 235.691 1538.663 222.504C1524.7 136.597 1464.003 67.367 1385.271 46.812C1361.225 40.606 1317.98 38.667 1295.679 42.933ZM1273.96 141.639C1279.196 145.13 1280.747 147.457 1281.135 153.081C1281.523 157.153 1280.747 162.195 1279.39 164.716C1276.481 170.146 1199.688 289.601 1147.329 369.885C1125.61 403.433 1089.541 458.895 1067.628 493.025C997.816 601.233 992.386 608.99 984.241 613.062C977.26 616.359 976.291 616.359 968.34 613.45C957.868 609.378 955.735 606.663 954.377 596.967C953.408 589.985 954.377 587.464 963.686 573.114C981.333 545.384 1176.03 247.714 1232.461 161.807C1248.944 136.791 1259.416 131.749 1273.96 141.639ZM1388.761 149.008C1395.355 152.499 1399.815 158.898 1399.815 165.491C1399.815 169.952 1389.343 188.762 1358.51 239.182C1301.885 331.682 1303.824 328.385 1276.869 370.466C1263.682 390.828 1242.157 425.54 1228.776 447.453C1215.59 469.366 1183.98 519.398 1158.577 558.958C1133.173 598.324 1111.066 632.648 1109.709 635.169C1102.146 646.804 1084.111 647.968 1075.191 637.302C1066.852 627.606 1068.209 620.431 1082.56 597.936C1089.347 587.077 1108.157 557.407 1124.447 531.809C1140.736 506.211 1178.745 445.514 1208.802 397.034C1317.011 222.504 1359.285 155.601 1364.133 151.141C1369.563 146.487 1381.586 145.324 1388.761 149.008ZM1458.185 259.349C1464.779 259.349 1474.087 269.627 1474.281 276.996C1474.475 283.784 1437.242 345.257 1296.067 572.533C1270.275 614.032 1238.472 666.003 1225.286 687.722C1201.046 727.67 1195.228 734.457 1184.95 734.457C1172.733 734.457 1161.873 722.046 1164.007 710.217C1164.782 706.726 1188.053 666.972 1215.977 621.789C1243.902 576.605 1278.808 519.398 1293.74 494.964C1308.672 470.336 1345.905 410.22 1376.544 361.158C1407.184 312.096 1433.169 270.015 1434.527 267.494C1437.242 262.452 1447.714 257.022 1451.786 258.38C1453.337 258.962 1456.052 259.349 1458.185 259.349Z"/></svg>
