<svg xmlns="http://www.w3.org/2000/svg" viewBox="0 0 1362.326 1000" width="1362.326" height="1000"><path fill="#000" fill-rule="nonzero" d="M429.597 0.447C328.32 6.015 240.964 36.99 168.573 93.023C160.394 99.462 145.255 112.861 134.814 122.954C73.734 182.12 33.015 257.468 12.133 349.175C0.648 400.162 0.996 393.897 0.126 600.628C-0.223 739.493 0.126 792.046 1.518 801.617C10.741 860.086 52.33 908.984 107.667 926.56C134.292 935.087 117.934 934.739 521.826 934.739L902.05 934.739L913.71 928.996C920.148 925.864 927.631 920.469 930.415 917.163L935.288 911.247L1110.522 910.725L1285.756 910.377L1285.756 937.001C1285.756 970.586 1287.322 977.373 1297.937 987.988C1312.902 1002.953 1333.262 1003.997 1349.446 990.772C1362.845 979.635 1362.323 986.77 1362.323 844.598C1362.323 723.657 1362.149 717.741 1359.016 711.476C1357.276 707.996 1354.144 703.646 1352.23 701.905C1343.181 693.727 1347.009 693.901 1141.148 693.727C952.515 693.727 946.773 693.553 942.77 690.42L938.594 687.114L938.072 565.303L937.724 443.492L958.258 426.09C995.323 394.767 1003.676 382.412 1001.588 362.052C1000.718 353.699 982.098 308.803 939.986 213.79C924.151 178.291 919.452 175.159 881.865 175.159L856.632 175.159L844.277 159.846C827.398 139.138 790.68 103.638 770.668 88.673C707.675 41.515 639.634 14.716 554.192 3.579C535.573 1.143 453.785 -0.945 429.597 0.447ZM523.914 216.923C622.755 237.631 697.582 312.11 718.812 410.603C723.684 433.573 724.206 479.165 719.682 503.179C710.633 552.252 684.704 600.454 647.813 636.997C601.003 683.112 540.967 707.648 474.841 707.648C351.986 707.648 247.402 620.292 227.042 500.743C223.562 479.861 223.388 438.271 226.868 418.607C235.743 366.925 258.713 323.247 296.475 285.659C337.717 244.417 387.311 220.577 448.739 212.746C463.008 211.006 507.382 213.442 523.914 216.923ZM1128.271 765.769C1138.712 770.12 1139.408 773.948 1139.582 818.322C1139.93 865.654 1140.452 864.262 1120.267 864.262C1100.951 864.262 1101.299 865.132 1101.299 818.322C1101.299 780.735 1101.473 779.342 1105.301 773.6C1109.13 767.857 1115.568 763.333 1120.093 763.333C1121.311 763.333 1124.965 764.377 1128.271 765.769ZM996.019 792.22C1005.59 796.744 1007.33 802.835 1007.33 831.895C1007.33 863.392 1006.808 864.262 988.188 864.262C978.269 864.262 975.311 863.566 972.353 860.608C969.047 857.302 968.873 855.387 969.395 830.329C969.917 806.489 970.265 803.009 973.571 798.658C977.225 793.612 983.838 789.435 987.84 789.435C989.232 789.435 992.887 790.654 996.019 792.22ZM1264.7 795.526C1269.05 799.876 1269.224 800.572 1269.746 828.763C1270.442 864.262 1270.442 864.262 1251.823 864.262C1233.203 864.262 1232.681 863.392 1232.681 832.243C1232.681 804.575 1234.421 797.962 1242.948 792.568C1249.908 788.391 1258.783 789.435 1264.7 795.526Z"/></svg>
